<svg width="52" height="55" viewBox="0 0 52 55" fill="none" xmlns="http://www.w3.org/2000/svg">
<path d="M0.904541 41.6892L1.96563 18.6989L2.01387 17.7343L3.63766 13.1523L27.1103 4.85645L49.3451 13.0558L50.8724 17.6539L51.9496 41.7214L26.4994 55.0011L0.904541 41.6892Z" fill="url(#paint0_radial_338_17343)"/>
<path d="M2.60907 38.8595L3.60585 14.1328L3.63801 13.1521L4.97241 12.4286L27.1107 0.000976562L49.3454 13.0556L50.3583 38.9077L26.548 52.1553L2.60907 38.8595Z" fill="url(#paint1_radial_338_17343)"/>
<path d="M26.8369 9.42188C26.6922 9.42188 10.5187 18.6502 10.5187 18.6502L10.0685 34.3254L26.4189 44.0843L42.673 34.036L41.8691 19.5666L26.8369 9.42188Z" fill="url(#paint2_linear_338_17343)"/>
<path style="mix-blend-mode:screen" d="M36.7726 23.3287C36.2421 22.0264 35.7437 20.7241 35.2935 19.3897C34.8434 18.0553 34.6022 15.5473 33.6858 14.245C32.2871 12.2193 28.8626 10.7884 26.8369 9.42188C26.6922 9.42188 10.5187 18.6502 10.5187 18.6502L10.0685 34.3254L25.8401 43.7467C25.8401 43.5055 25.8401 43.2644 25.8401 43.0232C25.8401 43.184 33.7501 39.2611 34.4736 38.9878C34.9398 38.7949 35.39 38.5698 35.8402 38.3287L37.3675 37.3801C39.779 35.7724 41.8369 35.5312 40.5829 32.5569C39.7469 30.5795 38.9752 28.5377 38.107 26.5441C37.6569 25.4669 37.2067 24.4058 36.7726 23.3287Z" fill="url(#paint3_linear_338_17343)"/>
<path style="mix-blend-mode:screen" opacity="0.63" d="M15.0527 34.8081C17.5286 35.1618 20.2134 37.0911 22.7215 37.8307C25.7922 38.7149 29.1523 39.2936 32.1427 37.6859C36.6842 35.0893 41.0311 32.1663 45.1491 28.9399C43.3646 30.2904 42.1428 33.7631 40.4707 35.4834C38.5926 37.1333 36.5755 38.6179 34.4418 39.9207C31.982 41.6731 28.0109 46.3515 24.7955 45.5316C21.5801 44.7117 17.9305 41.5605 15.4225 39.5669C14.3935 38.747 14.2328 39.0846 14.2489 37.7663C14.2489 36.7052 15.2295 35.6602 15.2777 34.8081C15.203 34.7994 15.1275 34.7994 15.0527 34.8081Z" fill="url(#paint4_linear_338_17343)"/>
<path style="mix-blend-mode:screen" opacity="0.63" d="M26.2422 9.87236C23.7502 13.2807 19.4094 13.7469 16.7888 16.673C14.1682 19.599 13.8949 24.1328 13.5734 27.7663C13.4287 29.0524 12.7213 31.7212 13.2197 33.0556C14.0879 35.2743 15.6313 33.0556 16.7245 32.1553C15.1168 34.7437 11.9014 37.0909 9.79526 33.3128C8.68593 31.2871 10.0203 27.3482 10.0846 25.0974C10.165 22.3643 9.9721 19.6634 10.0846 16.9624C13.4126 16.5284 17.0622 14.3257 19.956 12.6376C21.2904 11.8498 25.9689 9.13281 26.2422 9.87236Z" fill="url(#paint5_linear_338_17343)"/>
<path d="M26.9337 1.41504L26.8372 9.75909L11.1138 18.9231L4.94012 13.7302L26.9337 1.41504Z" fill="url(#paint6_linear_338_17343)"/>
<path d="M11.0171 18.747L10.5991 34.2133L3.79849 38.1843L4.73097 13.731L11.0171 18.747Z" fill="url(#paint7_linear_338_17343)"/>
<path d="M26.5638 43.6512L10.5991 34.2139L3.79849 38.1849L26.5477 50.8216L26.5638 43.6512Z" fill="url(#paint8_linear_338_17343)"/>
<path d="M42.0298 34.0366L26.5636 43.6508L26.5475 50.8212L49.0877 38.2971L42.0298 34.0366Z" fill="url(#paint9_linear_338_17343)"/>
<path d="M48.2838 13.9565L49.2002 38.2974L42.0298 34.0369L41.6761 20.0176L48.2838 13.9565Z" fill="url(#paint10_linear_338_17343)"/>
<path d="M48.2838 13.9552L41.6118 20.0806L26.8369 9.75909V1.41504L48.2838 13.9552Z" fill="url(#paint11_linear_338_17343)"/>
<path d="M9.95578 40.3869C11.1455 39.1328 12.3191 37.911 13.3963 36.5766C13.1069 35.7727 11.7886 35.419 11.4509 34.6634C11.7564 34.8242 11.9976 35.1135 12.287 35.2582C12.5764 35.4029 13.2033 35.837 13.6535 35.6441C14.8432 35.0974 15.4542 33.554 16.5314 32.8306C16.383 33.0974 16.2592 33.3773 16.1615 33.6666C15.9525 34.0203 15.7275 34.358 15.5024 34.6956C15.1434 35.356 14.8834 36.0656 14.7308 36.8017C15.197 36.8017 15.5667 37.2518 15.9847 37.4447C16.4027 37.6376 16.8851 37.8145 17.3513 38.0556C18.1693 38.482 18.9218 39.0234 19.586 39.6634C18.6374 39.3097 17.705 38.7792 16.7082 38.4898C16.3384 38.3933 15.9525 38.2969 15.5667 38.2326C14.179 38.2973 12.8346 38.7361 11.676 39.5026C11.1133 39.6956 10.5024 40.1939 9.95578 40.3869Z" fill="url(#paint12_linear_338_17343)"/>
<path d="M48.8629 27.5254C47.8178 29.2296 46.8693 31.9466 45.1169 32.9112C45.9167 33.0245 46.7286 33.0245 47.5284 32.9112C47.6892 32.9112 49.1361 32.1557 49.1361 32.2039C49.0879 30.548 48.895 29.0366 48.8629 27.5254Z" fill="url(#paint13_linear_338_17343)"/>
<path style="mix-blend-mode:screen" d="M46.7566 15.3702C47.1099 14.8116 47.4964 14.2747 47.9141 13.7624L47.2711 13.3925C45.8618 13.9049 44.3281 13.9667 42.8821 13.5693C38.8735 12.4451 35.1108 10.5803 31.7888 8.07105C30.3048 6.5975 29.0624 4.89928 28.1071 3.03889C27.9142 2.7495 27.7373 2.39581 27.5444 2.04211L27.3837 1.76873L26.8209 1.44727V9.77513L30.0363 12.0582C31.001 12.5566 31.9817 13.071 32.9142 13.6659C34.516 14.6118 36.0376 15.6872 37.464 16.8813C38.9287 17.857 40.3253 18.9313 41.6441 20.0967L46.7566 15.3702Z" fill="url(#paint14_linear_338_17343)"/>
<path style="mix-blend-mode:screen" opacity="0.33" d="M21.3868 43.2322C20.4674 41.3489 19.1314 39.6996 17.4801 38.4091C16.001 37.4284 14.2647 37.364 12.866 36.2386C11.4672 35.1132 10.6634 34.3094 8.89494 35.2257L8.42864 35.4348L4.03961 38.0072C4.02358 38.0868 4.02358 38.1687 4.03961 38.2483L24.7148 49.7596C23.8076 47.4865 22.6936 45.3016 21.3868 43.2322Z" fill="url(#paint15_linear_338_17343)"/>
<path style="mix-blend-mode:screen" opacity="0.39" d="M4.71475 14.4702L4.61829 17.0264C4.68187 17.7378 4.68187 18.4535 4.61829 19.1648L3.8949 38.1358L4.31282 37.8786L4.69876 37.1551C5.53883 35.668 6.29034 34.1327 6.9495 32.557C8.29183 29.7935 8.77884 26.6923 8.34821 23.6503C7.75603 20.3801 6.52103 17.2599 4.71475 14.4702Z" fill="url(#paint16_linear_338_17343)"/>
<path style="mix-blend-mode:screen" d="M5.03625 13.683C5.7758 14.1653 6.53147 14.712 7.2871 15.1622C8.34819 15.8213 9.45747 17.1074 10.7597 17.236C12.062 17.3646 12.5282 16.3036 13.3803 15.4997C15.181 13.7955 16.9012 12.027 18.6054 10.1942C20.3096 8.36138 22.9623 5.90158 23.8787 3.16846L5.03625 13.683Z" fill="url(#paint17_linear_338_17343)"/>
<path style="mix-blend-mode:screen" opacity="0.54" d="M46.7568 37.6224C45.3259 37.124 42.3999 36.6417 41.1298 37.3009C37.6944 39.0947 34.4606 41.2506 31.4835 43.7317C30.1306 44.8277 28.9588 46.1298 28.0109 47.5902C27.8662 47.8153 27.1105 49.4551 26.5639 50.8056L49.0719 38.2976C48.3645 38.0726 47.5285 37.8957 46.7568 37.6224Z" fill="url(#paint18_linear_338_17343)"/>
<path style="mix-blend-mode:screen" opacity="0.63" d="M26.6605 1.6083C26.5014 1.93732 26.3775 2.28223 26.2908 2.63727C26.0901 3.55013 26.0411 4.48982 26.1461 5.41859C26.1461 6.51183 25.8888 9.03603 26.4194 9.92027C26.7087 10.3865 27.5448 10.6437 28.0271 10.901L31.6444 12.814C32.5608 13.2964 33.847 13.3125 34.8599 13.7306C35.8762 14.1672 36.8282 14.7405 37.6895 15.4346C38.4338 16.0979 39.083 16.8608 39.6187 17.7016C40.1814 18.4733 41.3229 19.1806 41.5319 20.1935C42.384 20.097 42.8503 19.2932 43.4612 18.7305C45.0689 17.2514 47.4644 16.0456 48.4773 14.052C46.4998 13.9395 45.0528 14.9041 43.1557 15.2417C42.3578 15.5154 41.523 15.6672 40.6798 15.6919C40.0046 15.5633 39.8117 15.0167 39.3294 14.5344C38.2683 13.4733 37.2393 12.2193 36.1139 11.319C35.2779 10.6277 34.2007 10.29 33.3486 9.71126C32.2229 8.79686 31.1494 7.81986 30.1332 6.78511C29.295 6.00873 28.5407 5.1466 27.8824 4.2128C27.368 3.40894 27.4966 2.60511 27.1589 1.83341C26.9821 1.31894 26.8052 1.3993 26.6605 1.6083Z" fill="url(#paint19_linear_338_17343)"/>
<g style="mix-blend-mode:screen" opacity="0.63">
<path d="M30.4541 12.0272C31.3103 12.7806 32.4167 13.1876 33.557 13.1686C36.0007 13.1686 38.0104 15.1302 39.6503 16.9308C40.4863 17.8472 41.1133 19.2138 41.9493 20.0176C42.8948 18.9166 43.9751 17.9389 45.1648 17.1077C46.2741 16.2073 47.2709 15.1302 48.3802 14.2781C47.345 15.269 46.1826 16.1177 44.9236 16.8021C44.4091 17.1076 42.7049 18.5384 42.094 18.4098C41.483 18.2812 40.7274 16.9791 40.4862 16.5772C39.9068 15.756 39.1822 15.0477 38.348 14.4871C36.5313 13.2652 34.6021 13.1849 32.7371 12.3328C32.0458 12.0112 31.4187 11.6575 30.7435 11.3038C28.2033 9.96942 27.5281 9.48715 27.303 6.31994C27.019 4.80845 26.863 3.27552 26.8367 1.73779C26.9975 3.34551 26.6921 5.19452 26.6921 6.8987C26.6098 7.72647 26.6586 8.5619 26.8367 9.37445C27.3351 10.6767 29.4091 11.3681 30.4541 12.0272Z" fill="#E4B754"/>
</g>
<g style="mix-blend-mode:screen" opacity="0.63">
<path d="M11.1135 24.8242C11.1135 27.3644 10.2292 30.7728 10.7437 33.1844C10.8429 33.7133 11.1086 34.1967 11.5019 34.564C11.8953 34.9314 12.3957 35.1633 12.9303 35.2261C14.4254 35.5637 14.747 34.8081 15.6151 33.329C11.7566 37.8949 10.792 30.2583 10.8884 27.6377L11.1135 24.8242Z" fill="#E4B754"/>
</g>
<g style="mix-blend-mode:screen" opacity="0.63">
<path d="M15.8887 36.7532C17.0945 37.3963 17.9626 38.5539 19.1845 39.2292C20.4064 39.9044 21.7569 40.4992 23.0109 41.2548C23.9594 41.8496 25.6636 42.2837 26.2263 43.377C26.5535 44.7133 26.7156 46.0848 26.7087 47.4607C26.7087 46.1584 26.7087 44.8562 26.7087 43.5539C29.265 43.0394 32.0623 40.1455 34.1684 38.6503C36.2745 37.1551 39.5864 35.7403 41.4996 33.8271C38.1716 35.9333 34.5865 37.7822 31.0656 39.6954C29.4672 40.6445 27.6642 41.1959 25.8083 41.3031C23.7874 41.0758 21.84 40.412 20.1009 39.3577C18.7504 38.6664 17.0945 37.3481 15.8887 36.7532Z" fill="#E4B754"/>
</g>
<path style="mix-blend-mode:screen" opacity="0.63" d="M49.0237 32.0591C48.4527 32.4909 47.832 32.8525 47.1748 33.1362C46.3549 33.3613 45.5671 32.9111 44.8758 32.8308C46.1298 33.3452 48.4289 33.8275 49.2167 34.9208C49.2747 33.9625 49.2098 33.0009 49.0237 32.0591Z" fill="url(#paint20_linear_338_17343)"/>
<path style="mix-blend-mode:screen" opacity="0.63" d="M41.9337 21.094C41.8531 24.0812 41.9337 27.0705 42.1749 30.049C42.1749 31.6567 41.6764 32.6053 41.805 34.2612C44.3452 34.5024 47.1909 37.5731 49.5703 38.3448C49.3452 38.2644 49.2166 33.0715 48.9916 32.4606C48.2429 32.7908 47.4686 33.0596 46.6764 33.2645C45.8263 33.221 44.9817 33.1026 44.1523 32.9107C45.5832 29.6953 46.8693 27.5409 46.2262 23.6663C45.6475 20.2741 44.6186 17.4285 47.1587 14.9526C45.5993 16.3674 42.0462 18.795 41.9337 21.094Z" fill="url(#paint21_linear_338_17343)"/>
<g style="mix-blend-mode:screen" opacity="0.63">
<path d="M41.6761 20.0171L42.0298 34.0364L49.0716 38.2968L43.4768 33.0396L41.6761 20.0171Z" fill="#E45D2D"/>
</g>
<path opacity="0.63" d="M5.11662 13.7472C5.72755 14.953 6.83695 15.8372 7.39965 17.1555C7.90048 18.3717 8.30894 19.6238 8.62153 20.9014C9.38859 23.834 9.87838 26.8322 10.0845 29.8564C10.181 31.2873 10.3257 32.7503 10.2935 34.2294C10.4385 32.395 10.4868 30.5543 10.4382 28.7149C10.409 26.7645 10.5165 24.8143 10.7597 22.8789C10.7597 21.8982 10.5669 19.953 11.1296 19.1652C12.2553 18.1994 13.4975 17.3784 14.8273 16.7214C15.7919 16.0462 16.7565 15.3388 17.7693 14.7279C20.0362 13.3452 22.9463 12.3806 24.8916 10.5317C22.6719 11.298 20.5206 12.2497 18.4608 13.3772C15.2453 14.8885 12.8498 17.2681 9.28065 15.5478C7.81402 15.032 6.39406 14.3918 5.03625 13.6345L5.11662 13.7472Z" fill="#4E060A"/>
<g style="mix-blend-mode:screen" opacity="0.63">
<path d="M26.4192 9.95264L11.0172 18.7468L10.5992 34.2131L11.9336 19.3578L26.4192 9.95264Z" fill="#E45D2D"/>
</g>
<path opacity="0.63" d="M13.3 36.0298C13.628 36.1322 13.9223 36.321 14.1521 36.5765C13.5054 37.4189 12.7484 38.1705 11.9013 38.8112C12.814 38.1954 13.8619 37.8093 14.9559 37.6858C16.1569 37.712 17.3265 38.074 18.3322 38.7308C19.7865 40.0004 21.0628 41.4605 22.1264 43.0716C23.2517 44.385 24.2277 45.8193 25.0364 47.3482C25.5187 48.3771 25.8402 49.5347 26.3225 50.5636C26.226 48.554 26.3225 46.496 26.21 44.4703C26.21 42.8626 25.1007 42.8626 23.7663 42.1874C21.4512 41.0941 19.6988 38.972 17.3354 37.9913C16.6536 37.7784 15.9829 37.5316 15.3258 37.2517C14.7309 36.9784 14.2647 36.1584 13.3 36.0298Z" fill="#4E060A"/>
<g style="mix-blend-mode:screen" opacity="0.63">
<path d="M38.1386 20.6923C38.1407 20.7556 38.1303 20.8187 38.1081 20.878C38.0858 20.9373 38.0521 20.9915 38.0088 21.0378C37.9656 21.084 37.9136 21.1213 37.8559 21.1475C37.7982 21.1736 37.736 21.1882 37.6727 21.1902C37.5462 21.1821 37.4277 21.126 37.3412 21.0335C37.2546 20.941 37.2066 20.819 37.2069 20.6923C37.2025 20.6298 37.2108 20.5671 37.2313 20.5079C37.2517 20.4487 37.2839 20.3942 37.3259 20.3477C37.3679 20.3012 37.4188 20.2636 37.4756 20.2373C37.5324 20.2109 37.5941 20.1963 37.6567 20.1943C37.7846 20.2023 37.905 20.2578 37.9941 20.3499C38.0833 20.4421 38.1348 20.5641 38.1386 20.6923Z" fill="#972610"/>
</g>
<g style="mix-blend-mode:screen" opacity="0.63">
<path d="M40.165 28.055C40.1693 28.1492 40.1547 28.2433 40.1221 28.3318C40.0895 28.4203 40.0395 28.5015 39.9751 28.5704C39.9107 28.6393 39.8331 28.6946 39.7469 28.7331C39.6608 28.7716 39.5679 28.7925 39.4736 28.7945C39.2802 28.7903 39.0963 28.7106 38.961 28.5723C38.8258 28.4341 38.7501 28.2484 38.7502 28.055C38.7435 27.9603 38.7565 27.8652 38.7882 27.7756C38.82 27.6861 38.8699 27.604 38.9347 27.5346C38.9996 27.4653 39.0781 27.41 39.1652 27.3722C39.2524 27.3345 39.3465 27.3152 39.4415 27.3154C39.6348 27.3196 39.8188 27.3995 39.954 27.5377C40.0892 27.6759 40.165 27.8616 40.165 28.055Z" fill="#972610"/>
</g>
<g style="mix-blend-mode:screen" opacity="0.63">
<path d="M20.7922 23.1678C20.7965 23.4678 20.6827 23.7575 20.4751 23.9742C20.2674 24.1908 19.9828 24.3169 19.6829 24.3254C19.5365 24.3213 19.3924 24.2879 19.2592 24.227C19.1259 24.1662 19.0063 24.0792 18.9073 23.9712C18.8083 23.8633 18.732 23.7366 18.683 23.5985C18.6339 23.4605 18.6132 23.314 18.6218 23.1678C18.6175 23.02 18.6424 22.8728 18.695 22.7346C18.7477 22.5964 18.827 22.4699 18.9286 22.3624C19.0301 22.2549 19.1518 22.1685 19.2867 22.1081C19.4217 22.0476 19.5673 22.0144 19.7151 22.0103C19.8622 22.0144 20.0069 22.0477 20.141 22.1084C20.2751 22.169 20.3958 22.2557 20.4961 22.3634C20.5963 22.4711 20.6741 22.5978 20.725 22.7359C20.7758 22.874 20.7987 23.0207 20.7922 23.1678Z" fill="#972610"/>
</g>
<g style="mix-blend-mode:screen" opacity="0.63">
<path d="M42.1909 40.1943C42.1974 40.3321 42.1761 40.4698 42.1283 40.5992C42.0805 40.7286 42.0072 40.8471 41.9127 40.9476C41.8182 41.048 41.7045 41.1285 41.5783 41.1841C41.4521 41.2398 41.316 41.2695 41.1781 41.2715C40.8952 41.2673 40.6253 41.152 40.4267 40.9504C40.2282 40.7488 40.1169 40.4772 40.117 40.1943C40.1105 40.0565 40.1318 39.9188 40.1796 39.7895C40.2273 39.6601 40.3007 39.5416 40.3951 39.4411C40.4896 39.3406 40.6034 39.2602 40.7296 39.2045C40.8558 39.1489 40.9919 39.1192 41.1298 39.1172C41.4114 39.1254 41.6789 39.2421 41.8766 39.4428C42.0743 39.6435 42.1868 39.9127 42.1909 40.1943Z" fill="#972610"/>
</g>
<g style="mix-blend-mode:screen" opacity="0.63">
<path d="M37.1106 9.4216C37.1194 9.54669 37.1027 9.67223 37.0618 9.79076C37.0208 9.90928 36.9564 10.0184 36.8724 10.1114C36.7883 10.2045 36.6864 10.2797 36.5726 10.3324C36.4589 10.3852 36.3357 10.4144 36.2103 10.4184C35.9573 10.4059 35.7193 10.2944 35.5479 10.1079C35.3764 9.92139 35.2852 9.6748 35.2939 9.4216C35.2852 9.29862 35.3014 9.17511 35.3415 9.05853C35.3816 8.94195 35.4449 8.83471 35.5275 8.74315C35.61 8.65159 35.7101 8.57764 35.8219 8.5257C35.9338 8.47376 36.0549 8.44494 36.1781 8.44092C36.4298 8.45331 36.6671 8.56213 36.8407 8.74472C37.0143 8.92731 37.111 9.16965 37.1106 9.4216Z" fill="#972610"/>
</g>
<g style="mix-blend-mode:screen" opacity="0.63">
<path d="M14.6023 12.0743C14.6067 12.1579 14.5942 12.2416 14.5656 12.3204C14.5371 12.3991 14.493 12.4713 14.436 12.5327C14.3791 12.5942 14.3104 12.6437 14.2341 12.6781C14.1577 12.7126 14.0751 12.7314 13.9914 12.7335C13.9083 12.7316 13.8264 12.7126 13.7509 12.6779C13.6753 12.6433 13.6077 12.5936 13.552 12.5319C13.4963 12.4702 13.4538 12.3979 13.4271 12.3192C13.4003 12.2405 13.39 12.1571 13.3965 12.0743C13.3922 11.9906 13.4047 11.9069 13.4332 11.8282C13.4618 11.7494 13.5059 11.6771 13.5629 11.6156C13.6198 11.5542 13.6884 11.5048 13.7648 11.4704C13.8412 11.4359 13.9237 11.4171 14.0075 11.415C14.0906 11.417 14.1724 11.4359 14.248 11.4706C14.3235 11.5052 14.3912 11.5549 14.4469 11.6166C14.5026 11.6783 14.5451 11.7506 14.5718 11.8293C14.5985 11.908 14.6089 11.9914 14.6023 12.0743Z" fill="#972610"/>
</g>
<g style="mix-blend-mode:screen" opacity="0.63">
<path d="M9.34495 26.6408C9.34508 26.8997 9.24454 27.1485 9.0645 27.3345C8.88447 27.5205 8.63911 27.6293 8.38036 27.6376C8.2543 27.6359 8.12999 27.6081 8.01513 27.5562C7.90027 27.5042 7.7973 27.4291 7.7128 27.3356C7.62829 27.242 7.56406 27.132 7.524 27.0124C7.48394 26.8929 7.46897 26.7664 7.48004 26.6408C7.48404 26.3847 7.58648 26.14 7.76608 25.9574C7.94569 25.7748 8.18864 25.6684 8.44463 25.6602C8.56922 25.662 8.69214 25.6892 8.80584 25.7402C8.91953 25.7912 9.02164 25.8649 9.10591 25.9567C9.19018 26.0485 9.25488 26.1565 9.29598 26.2741C9.33709 26.3918 9.35371 26.5165 9.34495 26.6408Z" fill="#972610"/>
</g>
<g style="mix-blend-mode:screen" opacity="0.63">
<path d="M30.3099 30.3709C30.3143 30.5644 30.2427 30.7518 30.1104 30.8931C29.9782 31.0343 29.7958 31.1181 29.6025 31.1265C29.4092 31.1181 29.2269 31.0343 29.0946 30.8931C28.9624 30.7518 28.8907 30.5644 28.8951 30.3709C28.893 30.2759 28.9096 30.1814 28.944 30.0928C28.9784 30.0042 29.0299 29.9233 29.0956 29.8546C29.1613 29.7859 29.2398 29.7309 29.3268 29.6926C29.4138 29.6543 29.5075 29.6334 29.6025 29.6313C29.6975 29.6334 29.7912 29.6543 29.8782 29.6926C29.9651 29.7309 30.0438 29.7859 30.1094 29.8546C30.1751 29.9233 30.2267 30.0042 30.261 30.0928C30.2954 30.1814 30.3121 30.2759 30.3099 30.3709Z" fill="#972610"/>
</g>
<g style="mix-blend-mode:screen" opacity="0.63">
<path d="M24.2488 8.4416C24.2553 8.56539 24.237 8.6892 24.195 8.80585C24.1531 8.9225 24.0883 9.02972 24.0045 9.12103C23.9206 9.21235 23.8195 9.28596 23.7068 9.3377C23.5942 9.38944 23.4724 9.41818 23.3485 9.42228C23.2239 9.41813 23.1014 9.38944 22.9879 9.3379C22.8744 9.28635 22.7721 9.2129 22.687 9.12182C22.6019 9.03074 22.5356 8.92376 22.4918 8.80703C22.4481 8.6903 22.4278 8.56618 22.4321 8.4416C22.4233 8.1884 22.5145 7.94201 22.686 7.7555C22.8575 7.56898 23.0954 7.45734 23.3485 7.44482C23.4738 7.44885 23.597 7.47804 23.7108 7.53078C23.8245 7.58353 23.9265 7.65871 24.0105 7.75177C24.0946 7.84482 24.159 7.95392 24.1999 8.07245C24.2409 8.19097 24.2575 8.31651 24.2488 8.4416Z" fill="#972610"/>
</g>
<g style="mix-blend-mode:overlay" opacity="0.37">
<path d="M4.5542 37.9114C5.74373 36.7285 7.19095 35.8371 8.7825 35.3069C10.9851 34.2297 11.178 35.3068 13.0108 36.4483C12.6571 37.8953 10.6957 39.1815 10.0687 40.6927C12.0622 39.8085 14.6989 38.2168 16.4995 39.6477C17.5177 40.7188 18.3833 41.9253 19.0719 43.2329C19.9794 44.1974 20.8125 45.2293 21.5639 46.3197C20.1812 46.593 17.8822 44.7924 16.4995 44.3743C14.9234 43.8218 13.4005 43.1277 11.9497 42.3004C10.6902 41.6489 9.48587 40.8962 8.34839 40.0496C7.51237 39.4226 4.95613 38.1204 4.5542 37.9114Z" fill="#E45D2D"/>
</g>
<g style="mix-blend-mode:overlay" opacity="0.37">
<path d="M5.16504 15.9336C5.06857 18.7793 4.85956 21.5606 4.74702 24.358C4.63447 27.4288 4.84348 30.3869 4.74702 33.4416C4.53863 34.8002 4.53863 36.1826 4.74702 37.5412C4.90611 36.6861 5.00817 35.8214 5.05249 34.9528C5.26434 33.7893 5.54897 32.6402 5.90462 31.5123C6.60772 29.866 6.87886 28.0676 6.69239 26.2872C6.06538 23.0235 4.95603 19.6474 5.16504 15.9336Z" fill="#E45D2D"/>
</g>
<g style="mix-blend-mode:overlay" opacity="0.37">
<path d="M28.3643 48.5068C29.1688 47.501 30.0738 46.5799 31.0652 45.7576C31.8225 44.757 32.6908 43.8455 33.6536 43.0406C34.988 42.1403 37.2067 42.0438 38.7822 41.5454C37.4017 42.4643 36.0758 43.4628 34.8112 44.5357C33.8305 45.1788 32.9141 45.9345 31.9655 46.5615C30.8209 47.3083 29.6164 47.9589 28.3643 48.5068Z" fill="#E45D2D"/>
</g>
<g style="mix-blend-mode:screen" opacity="0.63">
<path d="M49.0716 38.2969L42.0298 34.0365L41.8369 29.1973L42.7533 33.5059L49.0716 38.2969Z" fill="#E4B754"/>
</g>
<path d="M32.7053 14.0365L32.4641 13.8114C31.9912 13.261 31.4114 12.8126 30.7599 12.4932C31.9456 13.0499 33.1644 13.5331 34.4095 13.9401C35.4105 14.1708 36.3896 14.4881 37.3355 14.8886C39.3612 15.9176 40.0365 18.3292 41.7246 19.7118C41.3869 19.4224 40.4384 19.3259 39.9882 19.0848C39.538 18.8436 38.9432 18.5382 38.3805 18.3131C37.0773 17.8595 35.9026 17.0984 34.956 16.0944C34.2874 15.3242 33.5322 14.6336 32.7053 14.0365Z" fill="url(#paint22_linear_338_17343)"/>
<path d="M0.904541 41.6895L26.4994 55.0013L51.4833 41.9788L26.1135 53.7312L0.904541 41.6895Z" fill="#15C3D1"/>
<g style="mix-blend-mode:screen" opacity="0.58">
<path fill-rule="evenodd" clip-rule="evenodd" d="M3.79849 38.1846L26.5477 50.8212L26.5638 45.0817L25.7438 49.3743L3.79849 38.1846Z" fill="#E4B754"/>
</g>
<g style="mix-blend-mode:screen" opacity="0.58">
<path fill-rule="evenodd" clip-rule="evenodd" d="M27.0461 50.5155C34.0439 45.8557 41.4103 41.7747 49.0718 38.313L27.0461 50.5155Z" fill="#E4B754"/>
</g>
<g style="mix-blend-mode:screen" opacity="0.58">
<path fill-rule="evenodd" clip-rule="evenodd" d="M10.6954 18.6184L4.73081 13.731L3.78226 37.0589L5.21313 15.1618L10.6954 18.6184Z" fill="#E4B754"/>
</g>
<g style="mix-blend-mode:screen" opacity="0.58">
<path fill-rule="evenodd" clip-rule="evenodd" d="M6.00104 13.1197C12.9961 9.85305 19.7494 6.09219 26.21 1.86572C19.5433 5.6385 12.807 9.38984 6.00104 13.1197Z" fill="#E4B754"/>
</g>
<path style="mix-blend-mode:screen" opacity="0.44" fill-rule="evenodd" clip-rule="evenodd" d="M50.8723 17.6537L49.3449 13.0556L27.1102 0.000976562L4.97194 12.4286L3.63754 13.1521L2.01374 17.7341L1.96551 18.6987L0.904419 41.6891L26.4993 55.001L51.9494 41.7212L50.8723 17.6537Z" fill="url(#paint23_radial_338_17343)"/>
<defs>
<radialGradient id="paint0_radial_338_17343" cx="0" cy="0" r="1" gradientUnits="userSpaceOnUse" gradientTransform="translate(29.487 23.0558) scale(50.1752 48.7138)">
<stop stop-color="#831721"/>
<stop offset="0.38" stop-color="#72121A"/>
<stop offset="1" stop-color="#4E060A"/>
</radialGradient>
<radialGradient id="paint1_radial_338_17343" cx="0" cy="0" r="1" gradientUnits="userSpaceOnUse" gradientTransform="translate(30.0835 3.57011) scale(59.3657 57.6366)">
<stop stop-color="#831721"/>
<stop offset="0.38" stop-color="#72121A"/>
<stop offset="1" stop-color="#4E060A"/>
</radialGradient>
<linearGradient id="paint2_linear_338_17343" x1="18.5251" y1="39.1486" x2="34.0877" y2="14.4379" gradientUnits="userSpaceOnUse">
<stop stop-color="#E45D2D"/>
<stop offset="0.07" stop-color="#DE552E"/>
<stop offset="0.32" stop-color="#C83831"/>
<stop offset="0.55" stop-color="#BB2732"/>
<stop offset="0.71" stop-color="#B62133"/>
<stop offset="1" stop-color="#971E2A"/>
</linearGradient>
<linearGradient id="paint3_linear_338_17343" x1="9.71475" y1="18.1839" x2="29.7308" y2="28.2965" gradientUnits="userSpaceOnUse">
<stop stop-color="#921A13"/>
<stop offset="0.02" stop-color="#8E1912"/>
<stop offset="0.26" stop-color="#5B100C"/>
<stop offset="0.48" stop-color="#340907"/>
<stop offset="0.69" stop-color="#170403"/>
<stop offset="0.87" stop-color="#060101"/>
<stop offset="1"/>
</linearGradient>
<linearGradient id="paint4_linear_338_17343" x1="17.6733" y1="42.0107" x2="36.0817" y2="31.7535" gradientUnits="userSpaceOnUse">
<stop stop-color="#E45D2D"/>
<stop offset="0.07" stop-color="#CC5328"/>
<stop offset="0.26" stop-color="#8F3A1C"/>
<stop offset="0.44" stop-color="#5C2512"/>
<stop offset="0.61" stop-color="#34150A"/>
<stop offset="0.77" stop-color="#170A05"/>
<stop offset="0.9" stop-color="#060201"/>
<stop offset="1"/>
</linearGradient>
<linearGradient id="paint5_linear_338_17343" x1="7.94638" y1="28.1842" x2="22.9946" y2="19.7919" gradientUnits="userSpaceOnUse">
<stop stop-color="#E45D2D"/>
<stop offset="0.07" stop-color="#CC5328"/>
<stop offset="0.26" stop-color="#8F3A1C"/>
<stop offset="0.44" stop-color="#5C2512"/>
<stop offset="0.61" stop-color="#34150A"/>
<stop offset="0.77" stop-color="#170A05"/>
<stop offset="0.9" stop-color="#060201"/>
<stop offset="1"/>
</linearGradient>
<linearGradient id="paint6_linear_338_17343" x1="26.9337" y1="10.1771" x2="4.94012" y2="10.1771" gradientUnits="userSpaceOnUse">
<stop stop-color="#80140B"/>
<stop offset="0.5" stop-color="#8C1810"/>
<stop offset="1" stop-color="#921A13"/>
</linearGradient>
<linearGradient id="paint7_linear_338_17343" x1="11.0171" y1="25.9657" x2="3.79849" y2="25.9657" gradientUnits="userSpaceOnUse">
<stop stop-color="#80140B"/>
<stop offset="0.5" stop-color="#8C1810"/>
<stop offset="1" stop-color="#921A13"/>
</linearGradient>
<linearGradient id="paint8_linear_338_17343" x1="26.5477" y1="42.5097" x2="3.79849" y2="42.5097" gradientUnits="userSpaceOnUse">
<stop stop-color="#80140B"/>
<stop offset="0.5" stop-color="#8C1810"/>
<stop offset="1" stop-color="#921A13"/>
</linearGradient>
<linearGradient id="paint9_linear_338_17343" x1="49.0877" y1="42.4289" x2="26.5475" y2="42.4289" gradientUnits="userSpaceOnUse">
<stop stop-color="#80140B"/>
<stop offset="0.27" stop-color="#8F1714"/>
<stop offset="0.69" stop-color="#A01B1F"/>
<stop offset="1" stop-color="#A61C23"/>
</linearGradient>
<linearGradient id="paint10_linear_338_17343" x1="46.0973" y1="15.8054" x2="45.2131" y2="33.6511" gradientUnits="userSpaceOnUse">
<stop stop-color="#E45D2D"/>
<stop offset="0.07" stop-color="#DE552E"/>
<stop offset="0.32" stop-color="#C83831"/>
<stop offset="0.55" stop-color="#BB2732"/>
<stop offset="0.71" stop-color="#B62133"/>
<stop offset="1" stop-color="#971E2A"/>
</linearGradient>
<linearGradient id="paint11_linear_338_17343" x1="29.2967" y1="1.73658" x2="43.2516" y2="18.8105" gradientUnits="userSpaceOnUse">
<stop stop-color="#E45D2D"/>
<stop offset="0.07" stop-color="#DE552E"/>
<stop offset="0.32" stop-color="#C83831"/>
<stop offset="0.55" stop-color="#BB2732"/>
<stop offset="0.71" stop-color="#B62133"/>
<stop offset="1" stop-color="#971E2A"/>
</linearGradient>
<linearGradient id="paint12_linear_338_17343" x1="17.8336" y1="34.5026" x2="11.8046" y2="41.3675" gradientUnits="userSpaceOnUse">
<stop stop-color="#921A13"/>
<stop offset="0.16" stop-color="#821511"/>
<stop offset="0.49" stop-color="#650D0D"/>
<stop offset="0.79" stop-color="#54080B"/>
<stop offset="1" stop-color="#4E060A"/>
</linearGradient>
<linearGradient id="paint13_linear_338_17343" x1="46.2583" y1="27.9595" x2="49.6184" y2="38.0237" gradientUnits="userSpaceOnUse">
<stop stop-color="#921A13"/>
<stop offset="0.16" stop-color="#821511"/>
<stop offset="0.49" stop-color="#650D0D"/>
<stop offset="0.79" stop-color="#54080B"/>
<stop offset="1" stop-color="#4E060A"/>
</linearGradient>
<linearGradient id="paint14_linear_338_17343" x1="32.7212" y1="-2.21832" x2="48.9752" y2="46.5276" gradientUnits="userSpaceOnUse">
<stop stop-color="#921A13"/>
<stop offset="0.02" stop-color="#8E1912"/>
<stop offset="0.26" stop-color="#5B100C"/>
<stop offset="0.48" stop-color="#340907"/>
<stop offset="0.69" stop-color="#170403"/>
<stop offset="0.87" stop-color="#060101"/>
<stop offset="1"/>
</linearGradient>
<linearGradient id="paint15_linear_338_17343" x1="10.7438" y1="33.1839" x2="24.4416" y2="74.3095" gradientUnits="userSpaceOnUse">
<stop stop-color="#921A13"/>
<stop offset="0.02" stop-color="#8E1912"/>
<stop offset="0.26" stop-color="#5B100C"/>
<stop offset="0.48" stop-color="#340907"/>
<stop offset="0.69" stop-color="#170403"/>
<stop offset="0.87" stop-color="#060101"/>
<stop offset="1"/>
</linearGradient>
<linearGradient id="paint16_linear_338_17343" x1="0.615202" y1="14.213" x2="16.7407" y2="62.5729" gradientUnits="userSpaceOnUse">
<stop stop-color="#921A13"/>
<stop offset="0.02" stop-color="#8E1912"/>
<stop offset="0.26" stop-color="#5B100C"/>
<stop offset="0.48" stop-color="#340907"/>
<stop offset="0.69" stop-color="#170403"/>
<stop offset="0.87" stop-color="#060101"/>
<stop offset="1"/>
</linearGradient>
<linearGradient id="paint17_linear_338_17343" x1="13.6054" y1="5.90158" x2="20.39" y2="26.2553" gradientUnits="userSpaceOnUse">
<stop stop-color="#921A13"/>
<stop offset="0.02" stop-color="#8E1912"/>
<stop offset="0.26" stop-color="#5B100C"/>
<stop offset="0.48" stop-color="#340907"/>
<stop offset="0.69" stop-color="#170403"/>
<stop offset="0.87" stop-color="#060101"/>
<stop offset="1"/>
</linearGradient>
<linearGradient id="paint18_linear_338_17343" x1="35.7761" y1="38.4423" x2="41.7728" y2="56.4165" gradientUnits="userSpaceOnUse">
<stop stop-color="#921A13"/>
<stop offset="0.02" stop-color="#8E1912"/>
<stop offset="0.26" stop-color="#5B100C"/>
<stop offset="0.48" stop-color="#340907"/>
<stop offset="0.69" stop-color="#170403"/>
<stop offset="0.87" stop-color="#060101"/>
<stop offset="1"/>
</linearGradient>
<linearGradient id="paint19_linear_338_17343" x1="34.1847" y1="14.679" x2="40.4869" y2="1.92985" gradientUnits="userSpaceOnUse">
<stop stop-color="#E45D2D"/>
<stop offset="0.07" stop-color="#CC5328"/>
<stop offset="0.26" stop-color="#8F3A1C"/>
<stop offset="0.44" stop-color="#5C2512"/>
<stop offset="0.61" stop-color="#34150A"/>
<stop offset="0.77" stop-color="#170A05"/>
<stop offset="0.9" stop-color="#060201"/>
<stop offset="1"/>
</linearGradient>
<linearGradient id="paint20_linear_338_17343" x1="48.67" y1="33.4899" x2="42.5125" y2="33.4899" gradientUnits="userSpaceOnUse">
<stop stop-color="#E45D2D"/>
<stop offset="0.07" stop-color="#CC5328"/>
<stop offset="0.26" stop-color="#8F3A1C"/>
<stop offset="0.44" stop-color="#5C2512"/>
<stop offset="0.61" stop-color="#34150A"/>
<stop offset="0.77" stop-color="#170A05"/>
<stop offset="0.9" stop-color="#060201"/>
<stop offset="1"/>
</linearGradient>
<linearGradient id="paint21_linear_338_17343" x1="44.3452" y1="32.1551" x2="56.4994" y2="7.63748" gradientUnits="userSpaceOnUse">
<stop stop-color="#E45D2D"/>
<stop offset="0.07" stop-color="#CC5328"/>
<stop offset="0.26" stop-color="#8F3A1C"/>
<stop offset="0.44" stop-color="#5C2512"/>
<stop offset="0.61" stop-color="#34150A"/>
<stop offset="0.77" stop-color="#170A05"/>
<stop offset="0.9" stop-color="#060201"/>
<stop offset="1"/>
</linearGradient>
<linearGradient id="paint22_linear_338_17343" x1="35.1651" y1="17.5253" x2="38.3966" y2="13.3131" gradientUnits="userSpaceOnUse">
<stop stop-color="#921A13"/>
<stop offset="0.16" stop-color="#821511"/>
<stop offset="0.49" stop-color="#650D0D"/>
<stop offset="0.79" stop-color="#54080B"/>
<stop offset="1" stop-color="#4E060A"/>
</linearGradient>
<radialGradient id="paint23_radial_338_17343" cx="0" cy="0" r="1" gradientUnits="userSpaceOnUse" gradientTransform="translate(33.1465 21.2871) scale(30.1383 29.2604)">
<stop stop-color="#E45D2D"/>
<stop offset="0.16" stop-color="#B84B24"/>
<stop offset="0.46" stop-color="#6A2B15"/>
<stop offset="0.72" stop-color="#31140A"/>
<stop offset="0.9" stop-color="#0D0503"/>
<stop offset="1"/>
</radialGradient>
</defs>
</svg>
