<svg width="21" height="20" viewBox="0 0 21 20" fill="none" xmlns="http://www.w3.org/2000/svg">
<g clip-path="url(#clip0_338_17678)">
<path d="M3.88734 17.6643H15.7698L15.2023 15.8268L16.5598 16.9918L17.804 18.1068L20.0707 20.001V2.06348C20.014 0.948476 19.054 0.000976562 17.864 0.000976562L3.8915 0.00347656C2.70234 0.00347656 1.73734 0.952643 1.73734 2.06764V15.601C1.73734 16.7768 2.70067 17.6643 3.88734 17.6643ZM12.6773 4.73681L12.6498 4.74681L12.6598 4.73681H12.6773ZM6.31817 5.79431C7.84567 4.68264 9.26151 4.73598 9.26151 4.73598L9.37567 4.84847C7.50651 5.29431 6.659 6.12931 6.659 6.12931C6.659 6.12931 6.88567 6.01847 7.2815 5.84931C9.79901 4.85931 12.5482 4.93097 15.0932 6.18431C15.0932 6.18431 14.244 5.40347 12.4898 4.90347L12.6448 4.75098C12.8873 4.75181 14.1707 4.79681 15.544 5.80097C15.544 5.80097 17.0807 8.42597 17.0807 11.651C17.0298 11.5893 16.1273 13.0393 13.8048 13.0893C13.8048 13.0893 13.4115 12.6443 13.1315 12.256C14.4898 11.866 14.9982 11.086 14.9982 11.086C14.5523 11.3668 14.1457 11.5335 13.8157 11.7001C13.3082 11.9235 12.7998 12.0335 12.2923 12.146C9.88901 12.536 8.53984 11.8835 7.26484 11.366L6.829 11.1443C6.829 11.1443 7.33651 11.9243 8.64067 12.3143C8.29817 12.7051 7.959 13.1493 7.959 13.1493C5.63734 13.0943 4.79067 11.6443 4.79067 11.6443C4.79067 8.41431 6.31817 5.79431 6.31817 5.79431Z" fill="white"/>
<path d="M12.827 10.6437C13.4195 10.6437 13.902 10.1437 13.902 9.52705C13.902 8.91455 13.422 8.41455 12.827 8.41455V8.41705C12.237 8.41705 11.7537 8.91539 11.752 9.53205C11.752 10.1437 12.2345 10.6437 12.827 10.6437Z" fill="white"/>
<path d="M8.97933 10.6437C9.57183 10.6437 10.0543 10.1437 10.0543 9.52705C10.0543 8.91455 9.57517 8.41455 8.98266 8.41455L8.97933 8.41705C8.38683 8.41705 7.90433 8.91539 7.90433 9.53205C7.90433 10.1437 8.38683 10.6437 8.97933 10.6437Z" fill="white"/>
</g>
<defs>
<clipPath id="clip0_338_17678">
<rect width="20" height="20" fill="white" transform="translate(0.904419 0.000976562)"/>
</clipPath>
</defs>
</svg>
