<svg width="21" height="20" viewBox="0 0 21 20" fill="none" xmlns="http://www.w3.org/2000/svg">
<path d="M19.2378 13.493C19.2378 16.5263 17.4294 18.3346 14.3961 18.3346H13.4044C12.9461 18.3346 12.5711 17.9596 12.5711 17.5013V12.693C12.5711 12.468 12.7544 12.2763 12.9794 12.2763L14.4461 12.2513C14.5628 12.243 14.6628 12.1596 14.6878 12.043L14.9795 10.4513C15.0045 10.3013 14.8878 10.1596 14.7294 10.1596L12.9544 10.1846C12.7211 10.1846 12.5378 10.0013 12.5294 9.77631L12.4961 7.73463C12.4961 7.6013 12.6044 7.48464 12.7461 7.48464L14.7461 7.4513C14.8878 7.4513 14.9961 7.34298 14.9961 7.20131L14.9628 5.20129C14.9628 5.05963 14.8544 4.9513 14.7128 4.9513L12.4628 4.98464C11.0794 5.00964 9.97945 6.14297 10.0045 7.5263L10.0461 9.81797C10.0544 10.0513 9.87112 10.2346 9.63778 10.243L8.63777 10.2596C8.49611 10.2596 8.38778 10.368 8.38778 10.5096L8.41278 12.093C8.41278 12.2346 8.5211 12.343 8.66277 12.343L9.66278 12.3263C9.89611 12.3263 10.0794 12.5096 10.0878 12.7346L10.1628 17.4846C10.1711 17.9513 9.79609 18.3346 9.32943 18.3346H7.41277C4.37944 18.3346 2.57111 16.5263 2.57111 13.4846V6.50963C2.57111 3.4763 4.37944 1.66797 7.41277 1.66797H14.3961C17.4294 1.66797 19.2378 3.4763 19.2378 6.50963V13.493Z" fill="white"/>
</svg>
