<svg width="21" height="20" viewBox="0 0 21 20" fill="none" xmlns="http://www.w3.org/2000/svg">
<g clip-path="url(#clip0_338_17602)">
<path d="M18.8493 5.92847C19.6626 5.35097 20.3468 4.63014 20.9043 3.80014V3.79931C20.1601 4.12514 19.3685 4.34181 18.5418 4.44681C19.3918 3.93931 20.041 3.14181 20.346 2.18098C19.5535 2.65348 18.6785 2.98681 17.746 3.17348C16.9935 2.37181 15.921 1.87598 14.751 1.87598C12.481 1.87598 10.6535 3.71848 10.6535 5.97681C10.6535 6.30181 10.681 6.61431 10.7485 6.91181C7.34013 6.74514 4.32346 5.11181 2.2968 2.62264C1.94346 3.23681 1.73513 3.93931 1.73513 4.69514C1.73513 6.11514 2.46596 7.37347 3.5568 8.10264C2.89763 8.09014 2.2518 7.89847 1.7043 7.59764V7.64264C1.7043 9.63514 3.12513 11.2901 4.9893 11.6718C4.65513 11.7635 4.2918 11.8068 3.9143 11.8068C3.6518 11.8068 3.3868 11.7918 3.13846 11.7368C3.6693 13.3601 5.17763 14.5543 6.9693 14.5935C5.5743 15.6843 3.80263 16.3418 1.88513 16.3418C1.5493 16.3418 1.2268 16.3268 0.904297 16.286C2.72096 17.4568 4.87263 18.126 7.19429 18.126C14.4301 18.126 19.146 12.0893 18.8493 5.92847Z" fill="white"/>
</g>
<defs>
<clipPath id="clip0_338_17602">
<rect width="20" height="20" fill="white" transform="translate(0.904358 0.000976562)"/>
</clipPath>
</defs>
</svg>
